<?xml version="1.0" encoding="iso-8859-1"?>
<!-- Generator: Adobe Illustrator 19.0.0, SVG Export Plug-In . SVG Version: 6.00 Build 0)  -->
<svg version="1.1" id="Layer_1" xmlns="http://www.w3.org/2000/svg" xmlns:xlink="http://www.w3.org/1999/xlink" x="0px" y="0px"
	 viewBox="0 0 512.001 512.001" style="enable-background:new 0 0 512.001 512.001;" xml:space="preserve">
<path style="fill:#AA1921;" d="M252.427,132.021c0-47.191,22.781-89.996,53.108-121.504c-3.507-3.502-7.015-7-10.517-10.517
	c-33.025,34.205-53.371,80.728-53.371,132.021c0,38.166,11.288,73.684,30.654,103.469l0,0
	C255.491,208.597,252.427,166.075,252.427,132.021z"/>
<path style="fill:#F05B56;" d="M378.404,176.899c-40.035-17.493-83.557-17.132-122.401-2.429
	c-38.839-14.703-82.367-15.064-122.401,2.429C49.323,213.724,27.337,315.627,63.811,404.492
	c33.869,82.537,117.108,124.752,192.192,100.879c75.084,23.878,158.319-18.342,192.192-100.879
	C484.659,315.627,462.678,213.724,378.404,176.899z"/>
<path style="fill:#FF827D;" d="M215.1,273.495c0,34.825-28.234,63.074-63.064,63.074l0,0c-34.83,0-63.064-28.249-63.064-63.074l0,0
	c0-34.834,28.234-63.074,63.064-63.074l0,0C186.866,210.426,215.1,238.666,215.1,273.495L215.1,273.495z"/>
<path style="fill:#CC333C;" d="M405.4,192.407c35.298,48.322,39.195,118.684,13.064,182.358
	C384.59,457.302,301.35,499.517,226.271,475.634c-47.054,14.966-97.303,3.971-136.601-26.63
	c41.059,52.249,106.289,75.459,166.328,56.366c75.084,23.878,158.319-18.342,192.192-100.879
	C480.391,326.023,466.986,237.427,405.4,192.407z"/>
<path style="fill:#69A646;" d="M340.818,45.4c-30.225-3.79-58.937,6.795-79.293,26.4c14.878,24.03,40.078,41.376,70.303,45.191
	c30.23,3.79,58.942-6.795,79.298-26.39C396.243,66.552,371.043,49.2,340.818,45.4z"/>
<g>
</g>
<g>
</g>
<g>
</g>
<g>
</g>
<g>
</g>
<g>
</g>
<g>
</g>
<g>
</g>
<g>
</g>
<g>
</g>
<g>
</g>
<g>
</g>
<g>
</g>
<g>
</g>
<g>
</g>
</svg>
