<?xml version="1.0" encoding="UTF-8" standalone="no"?>
<!-- Created with Inkscape (http://www.inkscape.org/) -->

<svg
   xmlns:dc="http://purl.org/dc/elements/1.1/"
   xmlns:cc="http://creativecommons.org/ns#"
   xmlns:rdf="http://www.w3.org/1999/02/22-rdf-syntax-ns#"
   xmlns:svg="http://www.w3.org/2000/svg"
   xmlns="http://www.w3.org/2000/svg"
   xmlns:sodipodi="http://sodipodi.sourceforge.net/DTD/sodipodi-0.dtd"
   xmlns:inkscape="http://www.inkscape.org/namespaces/inkscape"
   width="17.888809mm"
   height="5.0482497mm"
   viewBox="0 0 17.888809 5.0482498"
   version="1.1"
   id="svg4556"
   inkscape:version="0.92.2 (5c3e80d, 2017-08-06)"
   sodipodi:docname="apple.svg">
  <defs
     id="defs4550" />
  <sodipodi:namedview
     id="base"
     pagecolor="#ffffff"
     bordercolor="#666666"
     borderopacity="1.0"
     inkscape:pageopacity="0.0"
     inkscape:pageshadow="2"
     inkscape:zoom="15.839192"
     inkscape:cx="26.243883"
     inkscape:cy="15.947848"
     inkscape:document-units="mm"
     inkscape:current-layer="text5156"
     showgrid="false"
     inkscape:window-width="1920"
     inkscape:window-height="1013"
     inkscape:window-x="-9"
     inkscape:window-y="-9"
     inkscape:window-maximized="1" />
  <metadata
     id="metadata4553">
    <rdf:RDF>
      <cc:Work
         rdf:about="">
        <dc:format>image/svg+xml</dc:format>
        <dc:type
           rdf:resource="http://purl.org/dc/dcmitype/StillImage" />
        <dc:title></dc:title>
      </cc:Work>
    </rdf:RDF>
  </metadata>
  <g
     inkscape:label="Layer 1"
     inkscape:groupmode="layer"
     id="layer1"
     transform="translate(-34.617298,-44.10734)">
    <path
       style="fill:none;stroke:none;stroke-width:0.07887231px;stroke-linecap:butt;stroke-linejoin:miter;stroke-opacity:1"
       d="m 34.579517,47.842496 c 0,0 8.451295,3.12999 17.83423,0"
       id="path4572"
       inkscape:connector-curvature="0" />
    <g
       aria-label="Apple!"
       style="font-style:normal;font-variant:normal;font-weight:normal;font-stretch:normal;font-size:10.58333302px;line-height:1.25;font-family:'Premier Sans';-inkscape-font-specification:'Premier Sans';letter-spacing:0px;word-spacing:0px;fill:#000000;fill-opacity:1;stroke:none;stroke-width:0.26458332"
       id="text4576">
      <g
         aria-label="Apple!"
         style="font-style:normal;font-variant:normal;font-weight:normal;font-stretch:normal;font-size:10.58333302px;line-height:1.25;font-family:'Premier Sans';-inkscape-font-specification:'Premier Sans';letter-spacing:0px;word-spacing:0px;fill:#353535;fill-opacity:1;stroke:none;stroke-width:0.07000434"
         id="text5156">
        <path
           id="path5168"
           style="fill:#353535;fill-opacity:1;stroke-width:0.07000434"
           d="m 52.484941,44.10734 h -0.772584 l 0.0635,3.894667 h 0.645584 z m -0.391584,4.233333 c -0.22225,0 -0.402166,0.169334 -0.402166,0.41275 0,0.22225 0.179916,0.402167 0.402166,0.402167 0.243417,0 0.41275,-0.179917 0.41275,-0.402167 0,-0.243416 -0.169333,-0.41275 -0.41275,-0.41275 z M 48.75597,49.15559 h 2.31775 l 0.1905,-0.772583 H 49.666137 V 47.50459 h 1.30175 v -0.762 h -1.30175 v -1.481666 h 1.598083 v -0.762 h -2.50825 z m -2.852539,-4.656666 v 4.656666 h 2.243667 l 0.1905,-0.772583 h -1.524 v -3.884083 z m -3.265951,0 v 4.656666 h 0.910166 v -1.576917 h 0.254 c 0.931334,0 1.68275,-0.613833 1.68275,-1.545166 0,-0.92075 -0.751416,-1.534583 -1.68275,-1.534583 z m 0.910166,0.762 h 0.254 c 0.433917,0 0.772584,0.349249 0.772584,0.772583 0,0.423333 -0.338667,0.772583 -0.772584,0.772583 h -0.254 z m -4.176116,-0.762 v 4.656666 h 0.910166 v -1.576917 h 0.254 c 0.931334,0 1.68275,-0.613833 1.68275,-1.545166 0,-0.92075 -0.751416,-1.534583 -1.68275,-1.534583 z m 0.910166,0.762 h 0.254 c 0.433917,0 0.772584,0.349249 0.772584,0.772583 0,0.423333 -0.338667,0.772583 -0.772584,0.772583 h -0.254 z m -5.664398,3.894666 h 0.910167 l 0.296333,-0.878417 h 1.915583 l 0.296334,0.878417 h 0.910166 l -1.703916,-5.04825 h -0.92075 z m 2.159,-3.725333 0.709083,2.074333 h -1.407583 z" />
      </g>
    </g>
  </g>
</svg>
