<?xml version="1.0" encoding="UTF-8" standalone="no"?>
<!-- Created with Inkscape (http://www.inkscape.org/) -->

<svg
   xmlns:dc="http://purl.org/dc/elements/1.1/"
   xmlns:cc="http://creativecommons.org/ns#"
   xmlns:rdf="http://www.w3.org/1999/02/22-rdf-syntax-ns#"
   xmlns:svg="http://www.w3.org/2000/svg"
   xmlns="http://www.w3.org/2000/svg"
   xmlns:sodipodi="http://sodipodi.sourceforge.net/DTD/sodipodi-0.dtd"
   xmlns:inkscape="http://www.inkscape.org/namespaces/inkscape"
   width="159.74655mm"
   height="50.10009mm"
   viewBox="0 0 159.74655 50.10009"
   version="1.1"
   id="svg8"
   inkscape:version="0.92.2 (5c3e80d, 2017-08-06)"
   sodipodi:docname="polish-that.svg">
  <defs
     id="defs2" />
  <sodipodi:namedview
     id="base"
     pagecolor="#ffffff"
     bordercolor="#666666"
     borderopacity="1.0"
     inkscape:pageopacity="0.0"
     inkscape:pageshadow="2"
     inkscape:zoom="1.4"
     inkscape:cx="162.73298"
     inkscape:cy="27.539068"
     inkscape:document-units="mm"
     inkscape:current-layer="text12"
     showgrid="false"
     inkscape:window-width="1920"
     inkscape:window-height="1013"
     inkscape:window-x="-9"
     inkscape:window-y="-9"
     inkscape:window-maximized="1" />
  <metadata
     id="metadata5">
    <rdf:RDF>
      <cc:Work
         rdf:about="">
        <dc:format>image/svg+xml</dc:format>
        <dc:type
           rdf:resource="http://purl.org/dc/dcmitype/StillImage" />
        <dc:title></dc:title>
      </cc:Work>
    </rdf:RDF>
  </metadata>
  <g
     inkscape:label="Layer 1"
     inkscape:groupmode="layer"
     id="layer1"
     transform="translate(-19.243982,-3.9751303)">
    <g
       aria-label="Polish That"
       inkscape:transform-center-x="-1.1339286"
       inkscape:transform-center-y="12.662202"
       style="font-style:normal;font-variant:normal;font-weight:normal;font-stretch:normal;font-size:50.44885635px;line-height:1.25;font-family:'Premier Script';-inkscape-font-specification:'Premier Script';letter-spacing:0px;word-spacing:0px;fill:#000000;fill-opacity:1;stroke:none;stroke-width:1.26753998"
       id="text12">
      <path
         id="path4546"
         style="stroke-width:1.26753998;fill:#353535;fill-opacity:1"
         d="m 161.4829,46.486947 c -1.82533,2.518849 -2.42335,5.848276 0.52908,7.387616 2.50509,1.306107 8.21505,-4.080266 10.88229,-7.013565 0.55211,-0.622447 0.0191,-1.127908 -0.53298,-0.505461 -2.22984,2.42173 -7.13113,6.693584 -8.60734,5.923914 -0.71574,-0.373173 -0.26303,-1.787069 0.38428,-2.701241 L 174.80649,35.2275 c 1.99352,0.868702 3.81002,1.53132 4.15604,1.085896 0.25465,-0.379281 -1.26247,-1.397856 -3.11606,-2.534961 l 0.39268,-0.534892 c 0.62399,-0.869439 1.38601,-1.894489 1.40131,-2.796816 0.0348,-0.721479 -0.31542,-1.359229 -1.38903,-1.918989 -0.62627,-0.326527 -1.44296,-0.0696 -1.83563,0.465291 l -2.05665,2.853396 c -1.16307,-0.606407 -2.05775,-1.072874 -2.10248,-1.096197 -0.98415,-0.513113 -2.34109,0.99827 -1.04381,1.674647 0.17893,0.09329 0.91608,0.534523 1.92355,1.002903 z m -4.08772,-1.541814 3.0667,-4.890618 c 1.69744,-1.799898 4.12861,-4.164898 4.67824,-6.61741 0.3207,-1.398616 -0.35806,-2.50961 -1.93651,-3.180901 -0.60352,-0.25667 -1.39755,0.0635 -1.74707,0.627537 l -1.85325,2.939707 c -2.46639,3.994672 -7.07151,10.697995 -9.57846,9.631826 -2.64621,-1.1254 4.39328,-13.810592 8.57152,-12.033644 1.02134,0.434366 0.63234,1.091251 1.00373,1.249202 0.13928,0.05923 0.39702,-0.160086 0.55497,-0.531485 0.41462,-0.974922 0.54162,-2.949312 -1.59392,-3.85753 -6.22093,-2.645678 -17.92745,13.536854 -10.12808,16.853824 1.53202,0.651548 3.80737,-0.573643 5.57792,-2.287627 l -0.1254,0.165955 c -1.6222,2.654221 -1.95731,6.020289 1.15315,7.343128 2.59979,1.105657 7.49841,-4.86981 9.88102,-8.022965 0.54802,-0.644079 -0.0229,-1.106192 -0.52455,-0.44237 -2.03309,2.58912 -6.25935,7.370347 -7.79137,6.7188 -1.25347,-0.533085 0.27695,-2.842588 0.79136,-3.665429 z M 145.84027,29.269086 c 1.17814,-2.887347 1.4444,-6.086833 -2.39149,-6.964469 -1.91795,-0.438819 -3.92086,2.20807 -5.63579,5.179611 1.33984,-3.367876 2.60799,-6.648647 4.0841,-9.933589 3.04905,0.697609 7.88557,0.82089 9.01327,-2.750779 0.85348,-2.599358 -1.27912,-4.588111 -4.08227,-5.2294606 -4.13096,-0.9451474 -6.51479,2.2356196 -8.07801,5.4488796 -3.30162,-2.307972 -5.97897,-6.4397056 -11.78199,-7.7674126 -2.26219,-0.5175807 -3.95714,1.0094633 -4.46346,3.2224776 -0.045,0.196712 0.1517,0.241719 0.32174,0.177118 2.39469,-1.418697 8.30276,1.485619 10.33157,2.570833 -0.33173,0.54513 -0.56511,1.112764 -0.82099,1.778754 l -4.98677,12.521695 c -2.643,6.12311 -7.00597,12.52548 -10.89104,11.636591 -5.21288,-1.192686 -1.91184,-9.287091 3.79282,-7.981887 1.13109,0.25879 2.20593,0.763471 2.69897,1.549059 0.12503,0.132111 0.32174,0.177118 0.36675,-0.01959 0.75387,-3.294933 -1.73006,-5.105305 -4.78909,-5.080665 -7.63425,0.116403 -10.00711,11.166052 -2.3845,12.910074 7.22918,1.654008 12.63362,-5.907394 15.16285,-12.211794 l 5.0922,-12.756334 c 0.0337,-0.147534 0.12794,-0.332995 0.21087,-0.469277 0.5072,0.271303 1.06359,0.553858 1.65789,0.896844 -0.91517,1.964214 -1.74324,4.00011 -2.49963,5.948901 l -6.05947,15.174403 c -0.28129,1.229453 0.59392,2.154233 1.97091,2.469282 1.18027,0.270042 1.90291,-1.531215 2.46385,-2.851943 1.08395,-2.701886 5.62482,-13.048493 8.03454,-12.497157 0.93439,0.213783 0.74437,1.722881 0.31137,2.710614 l -3.997,10.005271 c -1.12896,2.898598 -0.86551,6.271031 2.42942,7.024898 2.75398,0.630099 6.52264,-6.115256 8.31216,-9.639008 0.37674,-0.741843 -0.21757,-1.084828 -0.59431,-0.342985 -1.54489,2.90694 -4.86222,8.358241 -6.4851,7.986934 -1.32781,-0.303798 -0.22843,-2.846897 0.13289,-3.747526 z m 2.35608,-17.988318 c 2.70479,0.618846 2.47646,3.878762 0.33474,5.096576 -1.82832,0.979004 -4.41933,0.541447 -6.14057,0.147636 1.10355,-2.335136 2.65843,-5.964325 5.80583,-5.244212 z m -47.01651,10.740354 c 0.37445,-3.088074 -0.16147,-6.253574 -4.04474,-6.153308 -2.017282,0.05209 -3.250386,3.111866 -4.174387,6.415992 l 0.667582,-5.417064 c 0.882684,-2.9498 1.559733,-6.045687 1.979414,-9.3367915 0.293125,-2.3289894 -0.900669,-3.610273 -3.119679,-3.5529781 -0.655616,0.016928 -1.245175,0.6377385 -1.329111,1.2959595 l -3.65838,28.3552351 c 0.03255,1.260801 1.109857,1.939504 2.521954,1.903044 1.159937,-0.02995 1.46348,-1.955483 1.628748,-3.372789 0.379665,-2.886346 2.211336,-14.036087 4.732939,-14.101195 0.907777,-0.02344 1.098138,1.485616 0.974187,2.548596 l -1.389503,10.684133 c -0.424889,3.089377 0.717523,6.289682 4.046036,6.20374 2.8242,-0.07292 4.80136,-7.542425 5.71103,-11.401304 0.1809,-0.812121 -0.53036,-0.995619 -0.71125,-0.183498 -0.77531,3.199356 -2.5859,9.301986 -4.25016,9.344957 -1.361666,0.03516 -0.978094,-2.699892 -0.851539,-3.662007 z m -26.200857,11.56924 c -0.36061,0.352802 -0.481626,0.979356 -0.395988,1.629575 0.335967,2.550862 2.823881,4.05503 5.324726,3.72565 3.601217,-0.474306 6.329457,-3.326977 5.822213,-7.178279 -0.0066,-0.05002 -0.01318,-0.100033 -0.06978,-0.143463 1.579315,-1.531005 2.712381,-3.359427 2.931967,-5.169307 0.09467,-0.826621 -0.588491,-0.991067 -0.683157,-0.164446 -0.202508,1.553208 -1.231637,3.011749 -2.593804,4.259732 -1.508803,-2.956122 -6.801567,-3.734678 -7.269286,-7.285878 -0.250328,-1.900643 0.862976,-3.879116 2.963686,-4.155795 0.550186,-0.07246 0.905671,0.694869 0.878101,1.258231 -0.07881,1.333377 -1.697647,2.564281 -1.739613,3.791037 -0.05099,2.703596 3.984517,1.663245 3.996229,0.593128 -0.0027,-0.406723 -0.522616,-0.490898 -0.48065,-1.717654 0.05782,-0.72 0.84614,-1.688864 0.868342,-3.06567 0.08661,-2.04679 -2.105101,-3.233777 -4.205811,-2.957098 -3.801285,0.500657 -5.987146,3.994276 -5.545778,7.345409 0.303029,2.300777 1.374611,3.48264 3.272813,4.75917 1.665197,1.052795 3.530461,2.079239 3.747852,3.729797 0.0066,0.05002 0.01318,0.100034 -0.03025,0.156639 -1.52149,0.811005 -3.295749,1.248226 -4.964849,0.552137 -0.596299,-0.277655 -1.249203,-0.598739 -1.826959,0.03708 z m 6.676159,0.850776 c -0.45918,1.536129 -1.937241,2.29053 -3.137647,2.448632 -1.700574,0.223978 -2.761664,-1.264574 -2.599902,-2.354454 1.952123,0.913236 3.809336,0.719512 5.737549,-0.09418 z M 68.550227,11.442324 c -1.482227,0.305909 -2.462492,1.796024 -2.2452,3.348052 0.35143,2.451563 3.422586,3.105523 4.844364,1.009166 1.421778,-2.096357 -0.227601,-4.846674 -2.599164,-4.357218 z m 3.319713,21.82564 -0.459935,-10.465053 c -0.06591,-1.06815 -0.09419,-2.45314 -0.712212,-3.201296 -0.429006,-0.581116 -1.103473,-0.854013 -2.289255,-0.609285 -0.691706,0.142758 -1.162233,0.858013 -1.128487,1.520705 l 0.243263,4.173785 0.345345,7.913099 c 0.177348,3.105635 1.80791,6.014373 5.06881,5.341371 2.766824,-0.571032 3.594022,-6.047498 3.757794,-9.996216 0.03448,-0.831309 -0.648608,-0.896379 -0.732494,-0.05487 -0.197518,3.286026 -1.042799,7.42691 -2.673249,7.763411 -0.790522,0.163152 -1.343469,-1.26809 -1.41958,-2.385648 z M 58.615243,8.9375381 c -0.682476,0.1818334 -1.111599,0.9226701 -0.991502,1.5693859 l 2.561973,24.11656 c 0.35354,3.090539 2.146756,5.90192 5.364144,5.044705 1.364952,-0.363666 2.174448,-1.832352 2.62331,-3.674831 0.562723,-2.394903 0.680303,-5.088876 0.654842,-7.535903 -0.01282,-0.831925 -0.711485,-0.906822 -0.747417,-0.06191 0.02226,2.239045 -0.166843,5.056491 -0.882219,7.074396 -0.315433,0.97159 -0.793304,1.725415 -1.427032,1.89426 -0.779973,0.20781 -1.413357,-1.189699 -1.55285,-2.301126 L 62.720169,21.209292 C 62.893077,18.135117 62.832027,14.96665 62.475284,11.668129 62.170321,9.3477792 60.760168,8.3660617 58.615243,8.9375381 Z M 52.019589,41.493601 C 49.078007,42.556806 44.85892,28.954419 50.172747,27.03379 c 1.043788,-0.377267 1.206125,0.368703 1.585684,0.231516 0.142335,-0.05145 0.181778,-0.38756 0.04459,-0.76712 -0.360118,-0.996342 -1.611395,-2.528873 -3.79386,-1.740043 -7.164177,2.58942 -3.913453,22.120687 4.057288,19.239743 2.562023,-0.926018 3.992809,-3.052452 4.709068,-5.671629 0.08174,0.07774 0.210928,0.138334 0.29267,0.216075 1.132384,0.609929 2.379099,0.05203 2.791247,-1.330726 0.620223,-1.994393 0.768289,-4.998277 0.573947,-7.020112 -0.06745,-0.780267 -0.80027,-0.729968 -0.715674,0.09774 0.173193,1.814907 0.02113,4.659308 -0.589949,6.382179 -0.294963,0.9649 -1.325602,1.230128 -2.095576,0.435567 0.331553,-2.050985 0.185802,-4.680457 -0.620176,-6.910366 -0.634494,-1.755461 -1.81203,-3.529216 -3.66238,-2.860426 -0.711674,0.257227 -1.156972,0.954606 -1.296453,1.756023 -0.352701,1.844057 1.37244,5.726536 2.646012,6.875507 0.413272,2.479136 -0.371581,4.908534 -2.079597,5.525879 z M 34.837453,27.619277 c 1.19648,2.220621 1.842974,4.909492 1.730813,7.147544 -0.04402,1.513667 -0.443333,3.21877 -1.908942,4.008446 -0.577361,0.311085 -1.325677,0.198528 -1.998954,-0.412905 l -2.051644,-5.828564 c -0.369285,-1.004449 -0.820698,-2.480399 -1.651142,-3.064456 -0.577559,-0.433783 -1.301945,-0.501928 -2.367842,0.07238 -0.977073,0.52645 -1.137291,1.930809 -0.928621,2.84988 0.410646,2.357503 1.388312,4.065657 2.652935,5.561892 l 4.964952,14.000842 c 0.59824,1.11031 1.889844,1.273975 3.133392,0.603946 1.021485,-0.55038 0.399118,-2.449971 -0.06933,-3.744825 L 33.32715,40.23802 c 0.854374,0.62847 2.053707,0.727239 2.897543,0.272577 5.285076,-2.847621 4.500118,-12.281274 0.935203,-16.664117 -2.932604,-3.634726 -7.818562,-3.237077 -11.638029,-1.179132 -5.462726,2.943339 -7.965275,10.423439 -5.045865,15.841753 1.268268,2.353858 3.551326,4.676694 6.39372,3.145201 0.222062,-0.119648 0.259581,-0.369087 -0.01723,-0.563772 -5.392717,-3.627239 -6.608211,-13.115447 -0.301649,-16.513449 3.50858,-1.890437 6.467967,-0.33315 8.286615,3.042193 z"
         inkscape:connector-curvature="0" />
    </g>
    <path
       style="fill:none;stroke:none;stroke-width:0.21800672px;stroke-linecap:butt;stroke-linejoin:miter;stroke-opacity:1"
       d="m 29.655629,55.493337 c 0,0 61.838519,-45.316331 139.880711,0"
       id="path22"
       inkscape:connector-curvature="0" />
    <text
       xml:space="preserve"
       style="font-style:normal;font-variant:normal;font-weight:normal;font-stretch:normal;font-size:10.58333302px;line-height:1.25;font-family:'Premier Script';-inkscape-font-specification:'Premier Script';letter-spacing:0px;word-spacing:0px;fill:#000000;fill-opacity:1;stroke:none;stroke-width:0.26458332"
       x="66.523811"
       y="122.56399"
       id="text30"><tspan
         sodipodi:role="line"
         id="tspan28"
         x="66.523811"
         y="131.22116"
         style="stroke-width:0.26458332" /></text>
  </g>
</svg>
