<?xml version="1.0" encoding="UTF-8" standalone="no"?>
<!-- Created with Inkscape (http://www.inkscape.org/) -->

<svg
   xmlns:dc="http://purl.org/dc/elements/1.1/"
   xmlns:cc="http://creativecommons.org/ns#"
   xmlns:rdf="http://www.w3.org/1999/02/22-rdf-syntax-ns#"
   xmlns:svg="http://www.w3.org/2000/svg"
   xmlns="http://www.w3.org/2000/svg"
   xmlns:sodipodi="http://sodipodi.sourceforge.net/DTD/sodipodi-0.dtd"
   xmlns:inkscape="http://www.inkscape.org/namespaces/inkscape"
   width="17.502678mm"
   height="8.3541641mm"
   viewBox="0 0 17.502678 8.3541642"
   version="1.1"
   id="svg5749"
   inkscape:version="0.92.2 (5c3e80d, 2017-08-06)"
   sodipodi:docname="rub.svg">
  <defs
     id="defs5743" />
  <sodipodi:namedview
     id="base"
     pagecolor="#ffffff"
     bordercolor="#666666"
     borderopacity="1.0"
     inkscape:pageopacity="0.0"
     inkscape:pageshadow="2"
     inkscape:zoom="7.9195959"
     inkscape:cx="62.932527"
     inkscape:cy="-4.9117936"
     inkscape:document-units="mm"
     inkscape:current-layer="text5753"
     showgrid="false"
     inkscape:window-width="1920"
     inkscape:window-height="1013"
     inkscape:window-x="-9"
     inkscape:window-y="-9"
     inkscape:window-maximized="1" />
  <metadata
     id="metadata5746">
    <rdf:RDF>
      <cc:Work
         rdf:about="">
        <dc:format>image/svg+xml</dc:format>
        <dc:type
           rdf:resource="http://purl.org/dc/dcmitype/StillImage" />
        <dc:title></dc:title>
      </cc:Work>
    </rdf:RDF>
  </metadata>
  <g
     inkscape:label="Layer 1"
     inkscape:groupmode="layer"
     id="layer1"
     transform="translate(-50.0063,-109.75636)">
    <g
       aria-label="Rub!"
       style="font-style:normal;font-variant:normal;font-weight:normal;font-stretch:normal;font-size:10.58333302px;line-height:1.25;font-family:'Premier Script';-inkscape-font-specification:'Premier Script';letter-spacing:0px;word-spacing:0px;fill:#353535;fill-opacity:1;stroke:none;stroke-width:0.26458332"
       id="text5753">
      <path
         id="path6313"
         style="fill:#353535;fill-opacity:1;stroke-width:0.26458332"
         d="m 67.079573,113.65439 c 0.16121,-0.15874 0.38529,-0.38981 0.423978,-0.59466 0.02601,-0.14928 -0.03902,-0.29716 -0.247948,-0.44161 -0.121877,-0.0843 -0.298564,-0.052 -0.385509,0.0551 l -2.737758,2.88067 c -0.150461,0.21763 -0.0519,0.4659 0.19185,0.63441 0.208931,0.14445 0.489865,-0.15025 0.69589,-0.35521 z m -3.201081,2.67615 c 0.295987,0.20462 0.29223,0.60088 0.06815,0.83195 -0.209357,0.22839 -0.53597,0.27278 -0.80584,0.0862 -0.235048,-0.1625 -0.305555,-0.50717 -0.09555,-0.77371 0.203982,-0.25783 0.57208,-0.32501 0.833244,-0.14445 z m -2.611157,-0.86682 c -0.304052,-0.13032 -0.569021,-0.35956 -0.726529,-0.6573 0.205726,-0.41467 0.418743,-0.81626 0.672485,-1.20629 0.307406,-0.46281 0.626634,-0.81225 0.87098,-0.74288 0.142534,0.0405 0.161778,0.24395 0.137408,0.44606 -0.08165,0.71392 -0.398454,1.63613 -0.954344,2.16041 z m 0.580822,-5.5339 -2.515816,5.49067 c -0.07225,0.25453 0.101085,0.45775 0.386154,0.53868 0.173078,0.0491 0.30944,-0.12119 0.421039,-0.32054 -0.0054,0.25151 0.179643,0.49106 0.413807,0.55754 0.305431,0.0867 0.784928,-0.0522 1.216148,-0.36986 0.623673,0.012 1.239531,-0.29722 1.541026,-0.81671 0.08697,-0.15134 -0.03383,-0.22963 -0.120793,-0.0783 -0.249341,0.41329 -0.685092,0.63063 -1.145868,0.66485 0.571852,-0.54176 0.999397,-1.31151 1.054775,-2.0879 0.02976,-0.45362 -0.187588,-0.88937 -0.727184,-1.04255 -0.407242,-0.1156 -0.801877,0.34445 -1.20065,0.93534 L 61.6256,112.419 c 0.361071,-0.53559 0.690088,-1.11328 0.979761,-1.74615 0.194034,-0.45099 0.0452,-0.77928 -0.40277,-0.90645 -0.142535,-0.0405 -0.299389,0.047 -0.354434,0.16342 z m -1.439182,5.14721 c 0.151598,0.24107 0.371442,0.43549 0.621698,0.56154 -0.156855,0.0875 -0.31673,0.10812 -0.449084,0.0705 -0.315613,-0.0896 -0.279812,-0.40948 -0.172614,-0.63209 z m -2.870142,0.19224 c -0.0074,0.61707 0.280265,1.20719 0.944253,1.14656 0.590211,-0.0539 0.901943,-1.64458 1.039594,-2.46483 0.02676,-0.17248 -0.124642,-0.20116 -0.151403,-0.0287 -0.118543,0.68035 -0.424639,1.98358 -0.761903,2.01437 -0.284566,0.026 -0.241678,-0.55181 -0.228344,-0.75494 l 0.08096,-1.20829 c 0.134903,-0.50117 0.349264,-1.17964 0.207253,-1.68742 -0.07964,-0.29029 -0.315408,-0.42817 -0.673751,-0.39545 -0.137013,0.0125 -0.251939,0.15053 -0.260507,0.28947 l -0.148549,2.33033 c -0.139668,0.56537 -0.378041,1.09725 -0.652068,1.12227 -0.168632,0.0154 -0.2502,-0.29597 -0.239753,-0.53073 l 0.141905,-2.17031 c 0.02291,-0.21464 0.03812,-0.5136 -0.06255,-0.68507 -0.07479,-0.1207 -0.22046,-0.20304 -0.473408,-0.17995 -0.137013,0.0125 -0.251939,0.15054 -0.260507,0.28948 l -0.05714,0.88728 -0.106669,1.6251 c -0.03615,0.65157 0.235266,1.29631 0.930873,1.2328 0.337263,-0.0308 0.570917,-0.38158 0.731711,-0.83199 z m -3.848434,-0.55509 c 0.381877,-0.2908 0.601031,-0.71903 0.690889,-1.20689 0.142345,-0.82142 -0.04903,-1.85654 -0.534702,-2.55785 -0.263003,-0.37078 -0.706498,-0.57186 -1.221849,-0.3504 -0.554245,0.23816 -0.488293,0.90097 -0.436398,1.39702 0.03382,0.48079 0.0968,0.94905 0.183411,1.41867 l -0.333366,-1.28511 c -0.174356,-0.67382 -0.560799,-0.79574 -0.940019,-0.63278 -0.369497,0.15877 -0.740128,0.58298 -0.906486,1.00003 -0.292531,0.71318 -0.265086,1.7957 0.269121,2.39552 0.222586,0.24992 0.528429,0.37192 0.917373,0.20479 0.04862,-0.0209 0.06108,-0.0723 0.0068,-0.11813 -0.991604,-0.80644 -0.880884,-2.72011 -0.423875,-2.91649 0.10696,-0.046 0.169557,0.0193 0.215519,0.12625 0.03761,0.0875 0.07947,0.26535 0.114337,0.40011 l 1.177266,4.56251 c 0.104458,0.24309 0.367151,0.29148 0.639412,0.17449 0.233366,-0.10028 0.132931,-0.49485 0.06455,-0.788 -0.08927,-0.34177 -0.203682,-0.82249 -0.329265,-1.356 0.07779,-0.0334 0.150032,-0.053 0.218097,-0.0822 0.796822,0.56761 2.68705,2.31259 3.562174,1.93654 0.262538,-0.11281 0.42905,-0.36867 0.466268,-0.68416 0.01246,-0.0514 -0.0043,-0.0903 -0.0626,-0.0652 -1.040425,0.44708 -2.595562,-1.10784 -3.336699,-1.57267 z m -1.311611,-2.65021 c -0.02409,-0.48496 0.06585,-0.89222 0.27004,-0.97997 0.165302,-0.071 0.355828,0.0775 0.533975,0.35802 0.366016,0.5569 0.575244,1.36548 0.546694,2.02282 -0.01633,0.36411 -0.175771,0.74364 -0.495206,0.9385 -0.171001,-0.0763 -0.378086,-0.10247 -0.557289,-0.037 -0.141085,-0.75722 -0.2669,-1.53253 -0.298214,-2.30238 z"
         inkscape:connector-curvature="0" />
    </g>
    <path
       style="fill:none;stroke:none;stroke-width:0.05858765px;stroke-linecap:butt;stroke-linejoin:miter;stroke-opacity:1"
       d="m 51.765672,118.11052 c 0,0 6.860972,-4.78162 12.543535,0"
       id="path5759"
       inkscape:connector-curvature="0" />
  </g>
</svg>
