<?xml version="1.0" encoding="UTF-8" standalone="no"?>
<!-- Created with Inkscape (http://www.inkscape.org/) -->

<svg
   xmlns:dc="http://purl.org/dc/elements/1.1/"
   xmlns:cc="http://creativecommons.org/ns#"
   xmlns:rdf="http://www.w3.org/1999/02/22-rdf-syntax-ns#"
   xmlns:svg="http://www.w3.org/2000/svg"
   xmlns="http://www.w3.org/2000/svg"
   xmlns:sodipodi="http://sodipodi.sourceforge.net/DTD/sodipodi-0.dtd"
   xmlns:inkscape="http://www.inkscape.org/namespaces/inkscape"
   width="16.717697mm"
   height="5.2175832mm"
   viewBox="0 0 16.717697 5.2175832"
   version="1.1"
   id="svg5178"
   inkscape:version="0.92.2 (5c3e80d, 2017-08-06)"
   sodipodi:docname="start.svg">
  <defs
     id="defs5172" />
  <sodipodi:namedview
     id="base"
     pagecolor="#ffffff"
     bordercolor="#666666"
     borderopacity="1.0"
     inkscape:pageopacity="0.0"
     inkscape:pageshadow="2"
     inkscape:zoom="3.959798"
     inkscape:cx="52.2536"
     inkscape:cy="-12.026773"
     inkscape:document-units="mm"
     inkscape:current-layer="text5186"
     showgrid="false"
     inkscape:window-width="1920"
     inkscape:window-height="1013"
     inkscape:window-x="-9"
     inkscape:window-y="-9"
     inkscape:window-maximized="1" />
  <metadata
     id="metadata5175">
    <rdf:RDF>
      <cc:Work
         rdf:about="">
        <dc:format>image/svg+xml</dc:format>
        <dc:type
           rdf:resource="http://purl.org/dc/dcmitype/StillImage" />
        <dc:title></dc:title>
      </cc:Work>
    </rdf:RDF>
  </metadata>
  <g
     inkscape:label="Layer 1"
     inkscape:groupmode="layer"
     id="layer1"
     transform="translate(-23.118814,-36.090144)">
    <g
       aria-label="Start"
       style="font-style:normal;font-variant:normal;font-weight:normal;font-stretch:normal;font-size:10.58333302px;line-height:1.25;font-family:'Premier Script';-inkscape-font-specification:'Premier Script';letter-spacing:0px;word-spacing:0px;fill:#000000;fill-opacity:1;stroke:none;stroke-width:0.26458332"
       id="text5186">
      <path
         id="path5196"
         style="font-style:normal;font-variant:normal;font-weight:normal;font-stretch:normal;font-family:'Premier Sans';-inkscape-font-specification:'Premier Sans';stroke-width:0.26458332;fill:#ffffff;fill-opacity:1"
         d="m 36.513346,36.566394 v 0.762 h 1.2065 v 3.894667 h 0.910166 v -3.894667 h 1.016 l 0.1905,-0.762 z m -3.100586,0 v 4.656667 h 0.910166 v -1.576917 h 0.201084 l 0.867833,1.576917 h 0.899583 L 35.34951,39.487394 c 0.53975,-0.243417 0.910166,-0.740833 0.910166,-1.386417 0,-0.92075 -0.751416,-1.534583 -1.68275,-1.534583 z m 0.910166,0.762 h 0.254 c 0.433917,0 0.772584,0.34925 0.772584,0.772583 0,0.423334 -0.338667,0.772584 -0.772584,0.772584 h -0.254 z m -5.395681,3.894667 h 0.910167 l 0.296333,-0.878417 h 1.661583 l 0.296334,0.878417 h 0.899583 l -1.566333,-4.656667 h -0.92075 z m 2.032,-3.344334 0.5715,1.693334 h -1.143 z m -5.029233,-1.312333 v 0.762 h 1.2065 v 3.894667 h 0.910167 v -3.894667 h 1.016 l 0.1905,-0.762 z m -2.588948,4.688417 c 0.201084,0.03175 0.381,0.05292 0.582084,0.05292 1.04775,0 1.894416,-0.624416 1.894416,-1.68275 0,-1.36525 -1.799166,-1.513416 -1.799166,-2.233083 0,-0.423333 0.402166,-0.529167 0.762,-0.529167 0.243416,0 0.486833,0.08467 0.66675,0.211667 v -0.889 c -0.201084,-0.05292 -0.4445,-0.09525 -0.66675,-0.09525 -0.878417,0 -1.661584,0.338667 -1.661584,1.30175 0,1.375833 1.799167,1.164167 1.799167,2.233083 0,0.497417 -0.391583,0.910167 -0.994833,0.910167 -0.264584,0 -0.560917,-0.07408 -0.804334,-0.1905 z" />
    </g>
  </g>
</svg>
